<?xml version="1.0" encoding="utf-8"?>
<!-- Generator: Adobe Illustrator 21.1.0, SVG Export Plug-In . SVG Version: 6.00 Build 0)  -->
<svg version="1.1" id="Layer_1" xmlns="http://www.w3.org/2000/svg" xmlns:xlink="http://www.w3.org/1999/xlink" x="0px" y="0px"
	 viewBox="0 0 48 48" enable-background="new 0 0 48 48" xml:space="preserve">
<g>
	<rect x="10" y="10" fill-rule="evenodd" clip-rule="evenodd" width="28" height="28"/>
	<g>
		<polygon fill-rule="evenodd" clip-rule="evenodd" fill="#D49B0D" points="6,0 6,3 3,3 3,6 0,6 0,42 3,42 3,45 5,45 6,45 6,48 
			8,48 11,48 42,48 42,44 11,44 11,41 8,41 8,38 5,38 5,10 8,10 8,7 11,7 11,4 14,4 14,0 		"/>
		<g>
			<polygon fill-rule="evenodd" clip-rule="evenodd" fill="#D49B0D" points="16,6 16,10 32,10 32,13 35,13 35,16 38,16 38,32 35,32 
				35,35 32,35 32,38 35,38 39,38 40,38 40,35 43,35 43,16 43,15 43,12 40,12 40,9 37,9 37,6 			"/>
		</g>
		<g>
			<polygon fill-rule="evenodd" clip-rule="evenodd" fill="#FFB806" points="8,13 8,16 8,35 10,35 11,35 11,38 13,38 13,41 37,41 
				37,38 16,38 16,35 13,35 13,32 10,32 10,16 13,16 13,13 16,13 16,10 16,6 14,6 14,10 11,10 11,13 			"/>
		</g>
		<g>
			<polygon fill-rule="evenodd" clip-rule="evenodd" fill="#FFFFFF" points="16,4 16,6 37,6 37,9 38,9 39,9 40,9 40,12 42,12 43,12 
				43,35 40,35 40,38 37,38 37,41 42,41 42,38 43,38 44,38 45,38 45,12 45,10 43,10 42,10 42,9 42,8 42,7 39,7 39,6 39,4 37,4 			
				"/>
		</g>
		<g>
			<polygon fill-rule="evenodd" clip-rule="evenodd" fill="#FFE006" points="5,10 5,38 8,38 8,41 11,41 11,44 13,44 42,44 42,41 
				13,41 13,38 11,38 11,35 8,35 8,13 11,13 11,10 14,10 14,6 16,6 16,4 14,4 11,4 11,7 8,7 8,10 			"/>
		</g>
		<g>
			<polygon fill-rule="evenodd" clip-rule="evenodd" fill="#FFCC00" points="14,0 14,4 39,4 39,7 42,7 42,10 45,10 45,38 42,38 
				42,45 45,45 45,42 48,42 48,10 48,6 45,6 45,3 42,3 42,0 			"/>
		</g>
	</g>
</g>
</svg>
