<?xml version="1.0" encoding="utf-8"?>
<!-- Generator: Adobe Illustrator 21.1.0, SVG Export Plug-In . SVG Version: 6.00 Build 0)  -->
<svg version="1.1" id="Layer_1" xmlns="http://www.w3.org/2000/svg" xmlns:xlink="http://www.w3.org/1999/xlink" x="0px" y="0px"
	 viewBox="0 0 19 19" enable-background="new 0 0 19 19" xml:space="preserve">
<polygon fill-rule="evenodd" clip-rule="evenodd" fill="#FF9901" points="16.5,8 16.5,5.5 19,5.5 19,0 13.5,0 13.5,2.5 11,2.5 
	11,5.5 8,5.5 8,2.5 5.5,2.5 5.5,0 0,0 0,5.5 2.5,5.5 2.5,8 5.5,8 5.5,11 2.5,11 2.5,13.5 0,13.5 0,19 5.5,19 5.5,16.5 8,16.5 
	8,13.5 11,13.5 11,16.5 13.5,16.5 13.5,19 19,19 19,13.5 16.5,13.5 16.5,11 13.5,11 13.5,8 "/>
</svg>
