<svg id="Layer_1" data-name="Layer 1" xmlns="http://www.w3.org/2000/svg" viewBox="0 0 59.88 59.88"><defs><style>.cls-1{fill:#fff;}.cls-2{fill:#f60;}</style></defs><title>icona casetta Gamefive C</title><circle class="cls-1" cx="29.94" cy="29.94" r="29.94"/><circle class="cls-2" cx="29.94" cy="29.94" r="26.93"/><g id="Layer0_0_FILL" data-name="Layer0 0 FILL"><path class="cls-1" d="M33.08,11.21q-2.72-2.78-5.56,0l-16.1,16q-2.26,1.85-2,3.94t3.13,2.09h2.26V45.73q0,3.19,3.19,3.19h5.27q3.24,0,3.24-3.19V37.45h6.37v8.28q0,3.19,3.24,3.19h5.27q3.24,0,3.24-3.19V33.34l3.3-.06a1.86,1.86,0,0,0,.81-.29,3.77,3.77,0,0,0,.81-.46,2.77,2.77,0,0,0,.75-1.22,4.75,4.75,0,0,0,.12-1.22,3.61,3.61,0,0,0-1.27-2.84l-16.1-16m-3.3,2.26v.06q.58-.58,1-.06l16.1,16q.17.17-.23.41l-3,.12-.41.06q-1.85.64-1.85,3.07V45.73H36.15V37.45q0-2.84-2.26-3.13l-1-.12H26.53l-1,.12q-2.26.29-2.26,3.13v8.28H18V33.17q0-2.84-2.26-3.13l-2.32-.12.23-.41Z" transform="translate(0 -0.12)"/></g></svg>