<?xml version="1.0" encoding="utf-8"?>
<!-- Generator: Adobe Illustrator 20.0.0, SVG Export Plug-In . SVG Version: 6.00 Build 0)  -->
<svg version="1.1" id="Layer_1" xmlns="http://www.w3.org/2000/svg" xmlns:xlink="http://www.w3.org/1999/xlink" x="0px" y="0px"
	 viewBox="0 0 800 800" style="enable-background:new 0 0 800 800;" xml:space="preserve">
<style type="text/css">
	.st0{fill:#FFFFFF;}
	.st1{fill:#EC2C00;}
	.st2{fill:#F76C00;}
	.st3{fill:#FB8600;}
	.st4{fill:#FFFF00;}
	.st5{fill:#FE9B00;}
</style>
<g transform="matrix( 1, 0, 0, 1, 0,0) ">
	<g>
		<g id="Layer3_0_FILL">
			<path class="st0" d="M796,401c0-109-38.5-202.2-115.7-279.4S510,6,401,6S198.8,44.5,121.6,121.6S6,292,6,401
				s38.5,202.2,115.6,279.3S292,796,401,796s202.2-38.5,279.3-115.7S796,510,796,401z"/>
		</g>
	</g>
</g>
<g transform="matrix( 1, 0, 0, 1, 0,0) ">
	<g>
		<g id="Layer2_0_FILL">
			<path class="st1" d="M473.5,62.6c-23.2-4.7-47.3-7-72.5-7c-95.4,0-176.9,33.8-244.4,101.1c-23.2,23.2-42.4,48-57.5,74.5
				C70,281.7,55.5,338.4,55.5,401c0,15.4,0.9,30.4,2.6,45.1c136.7-27.6,257.2-93.7,361.9-198.4c50.4-50.4,91.9-104.4,124.3-162.2
				C521.8,75.2,498.3,67.5,473.5,62.6z"/>
			<path class="st2" d="M566.3,96.6c-7.2-4-14.4-7.7-21.9-11.1c-32.5,57.8-73.9,111.8-124.3,162.2
				C315.4,352.4,194.8,418.5,58.2,446.1c0.9,7.7,2.1,15.4,3.5,22.9c8.5,45.1,25.6,86.6,51.7,124.4c128.5-29.8,242.5-94.5,342-194.1
				c78.2-78.1,134.9-165.3,170.1-261.2C606.6,121.9,586.9,108,566.3,96.6z"/>
			<path class="st3" d="M645.3,156.6c-6.5-6.5-13.1-12.7-19.8-18.5c-35.2,95.9-91.9,183.1-170.1,261.2
				c-99.6,99.6-213.6,164.3-342,194.1c12.4,18.2,27,35.4,43.4,51.8c21.9,21.9,45.2,40.2,70,55c92.6-35.3,176.9-91,252.8-166.9
				c100.2-100.1,165-215,194.6-344.4C665.3,177.9,655.7,167.1,645.3,156.6z"/>
			<path class="st4" d="M746.5,401c0-50.3-9.4-96.6-28.1-139.2C696.5,415.6,628.1,550,513,665.1c-30.3,30.3-61.7,57.2-94.6,81
				c87.9-3.9,163.6-37.5,227-100.9C712.7,577.8,746.5,496.4,746.5,401z"/>
			<path class="st5" d="M718.4,261.8c-11.3-25.7-26.1-50.1-44.3-72.9c-29.5,129.5-94.4,244.3-194.6,344.4
				c-75.9,75.9-160.2,131.5-252.8,166.9c51.7,30.8,109.8,46.2,174.3,46.2c5.8,0,11.7-0.1,17.4-0.3c32.9-23.8,64.4-50.7,94.6-81
				C628.1,550,696.5,415.6,718.4,261.8z"/>
		</g>
	</g>
</g>
<g transform="matrix( 1, 0, 0, 1, -5,18.3) ">
	<g>
		<g id="Layer0_0_FILL">
			<path class="st0" d="M626.5,390.2c0.7-10.8-4-20.8-14-30.1L439.7,187.8c-19.3-19.7-39.2-19.7-59.5,0L207.3,360
				c-16.1,12.9-23.2,26.8-21.5,41.8c2.2,15.4,13.5,23,33.9,22.7h24.1v133.7c0,22.9,11.4,34.3,34.4,34.3h56.2
				c23.2,0,34.9-11.4,34.9-34.3v-88.6H438v88.6c0,22.9,11.4,34.3,34.3,34.3h56.9c23.2,0,34.9-11.4,34.9-34.3V425.1l35.4-0.4
				c2.2,0,5.1-1.1,8.6-3.3l8.6-4.8c4.3-4.3,7-8.6,8.1-13C625.9,400.3,626.5,395.8,626.5,390.2z"/>
		</g>
	</g>
</g>
</svg>
