<?xml version="1.0" encoding="utf-8"?>
<!-- Generator: Adobe Illustrator 21.1.0, SVG Export Plug-In . SVG Version: 6.00 Build 0)  -->
<svg version="1.1" id="Layer_1" xmlns="http://www.w3.org/2000/svg" xmlns:xlink="http://www.w3.org/1999/xlink" x="0px" y="0px"
	 viewBox="0 0 59.9 59.9" style="enable-background:new 0 0 59.9 59.9;" xml:space="preserve">
<style type="text/css">
	.st0{fill:#000000;}
	.st1{fill:#FFFFFF;}
</style>
<title>icona casetta Gameasy</title>
<circle class="st0" cx="29.9" cy="29.9" r="29.9"/>
<g id="Layer0_0_FILL">
	<path class="st1" d="M33.1,11.1c-1.8-1.9-3.7-1.9-5.6,0l-16.1,16c-1.5,1.2-2.2,2.5-2,3.9s1.2,2.1,3.1,2.1h2.3v12.5
		c0,2.1,1.1,3.2,3.2,3.2h5.3c2.2,0,3.2-1.1,3.2-3.2v-8.3h6.4v8.3c0,2.1,1.1,3.2,3.2,3.2h5.3c2.2,0,3.2-1.1,3.2-3.2V33.2l3.3-0.1
		c0.3,0,0.6-0.1,0.8-0.3c0.3-0.1,0.6-0.3,0.8-0.5c0.4-0.3,0.6-0.8,0.8-1.2c0.1-0.4,0.1-0.8,0.1-1.2c0-1.1-0.4-2.1-1.3-2.8L33.1,11.1
		 M29.8,13.4L29.8,13.4c0.4-0.3,0.7-0.3,1,0l16.1,16c0.1,0.1,0,0.3-0.2,0.4l-3,0.1L43.2,30c-1.2,0.4-1.8,1.5-1.8,3.1v12.6h-5.2v-8.3
		c0-1.9-0.8-2.9-2.3-3.1l-1-0.1h-6.4l-1,0.1c-1.5,0.2-2.3,1.2-2.3,3.1v8.3H18V33c0-1.9-0.8-2.9-2.3-3.1l-2.3-0.1l0.2-0.4L29.8,13.4z
		"/>
</g>
</svg>
